<svg fill="none" height="480" viewBox="0 0 480 480" width="480" xmlns="http://www.w3.org/2000/svg"><path d="m437.395 238.704c1.92-24.278-3.993-49.642-11.894-72.24-11.731-33.6-34.56-68.0063-72.893-75.9551-22.128-4.5792-44.649.336-63.619 11.8171-18.24 11.04-32.477 25.306-54.902 28.071-22.685 2.793-45.965 1.661-68.775 1.661-58.627 0-106.2143 58.982-94.2719 120.422s67.9299 104.064 115.5169 104.064c42.768 0 77.942-24.566 118.56-31.162 20.16-3.273 40.368.596 60.298-4.3 23.164-5.703 44.947-19.296 57.782-38.976 8.745-13.421 13.008-28.196 14.198-43.402z" fill="#27bfab"/><path d="m437.395 238.704c1.92-24.278-3.993-49.642-11.894-72.24-11.731-33.6-34.56-68.0063-72.893-75.9551-22.128-4.5792-44.649.336-63.619 11.8171-18.24 11.04-32.477 25.306-54.902 28.071-22.685 2.793-45.965 1.661-68.775 1.661-58.627 0-106.2143 58.982-94.2719 120.422s67.9299 104.064 115.5169 104.064c42.768 0 77.942-24.566 118.56-31.162 20.16-3.273 40.368.596 60.298-4.3 23.164-5.703 44.947-19.296 57.782-38.976 8.745-13.421 13.008-28.196 14.198-43.402z" fill="#fff" opacity=".7"/><path d="m126.416 217.249c4.98-11.27-.119-24.444-11.39-29.424-11.27-4.981-24.4437.118-29.4239 11.389-4.9802 11.27.1189 24.444 11.3893 29.424 11.2706 4.98 24.4446-.119 29.4246-11.389z" stroke="#263238" stroke-linecap="round" stroke-linejoin="round"/><path d="m108.897 226.506c10.086-1.592 16.972-11.06 15.38-21.147-1.592-10.086-11.059-16.972-21.146-15.38-10.0867 1.592-16.9728 11.06-15.3807 21.146 1.5922 10.087 11.0597 16.973 21.1467 15.381z" stroke="#263238" stroke-linecap="round" stroke-linejoin="round"/><path d="m94.2241 208.243h11.7889v17.011" stroke="#263238" stroke-linecap="round" stroke-linejoin="round"/><path d="m199.507 77.088-3.581-8.9472h-58.137v8.9472 28.752 210.211h227.453v-238.963z" fill="#a3a3a3"/><path d="m360.768 82.8384h-219.792v230.6596h219.792z" fill="#fff"/><path d="m360.768 82.8384h-219.792v9.5808h219.792z" fill="#27bfab"/><path d="m294.346 102.451h-80.4c-.806 0-1.603.159-2.346.467-.744.309-1.42.761-1.989 1.33-.569.57-1.019 1.247-1.327 1.991-.307.744-.464 1.541-.463 2.347v32.928l7.248-7.68h79.277c.807 0 1.606-.16 2.352-.469.745-.31 1.422-.763 1.992-1.335s1.021-1.25 1.329-1.997c.307-.746.464-1.546.461-2.353v-19.094c0-1.627-.646-3.188-1.797-4.338-1.15-1.151-2.71-1.797-4.337-1.797z" fill="#a3a3a3"/><path d="m224.227 124.55c4.761 0 8.621-3.859 8.621-8.62 0-4.762-3.86-8.621-8.621-8.621s-8.621 3.859-8.621 8.621c0 4.761 3.86 8.62 8.621 8.62z" fill="#fff"/><path d="m228.576 115.344s.902-1.21 1.104 0-1.546 2.707-1.546 2.707z" fill="#fff" stroke="#263238" stroke-linecap="round" stroke-linejoin="round"/><path d="m219.907 115.344s-.902-1.21-1.104 0c-.201 1.21 1.546 2.707 1.546 2.707z" fill="#fff" stroke="#263238" stroke-linecap="round" stroke-linejoin="round"/><path d="m224.544 109.44s-3.408-.269-4.195 2.006c-.54 2.182-.54 4.462 0 6.644.259.7 2.448 4.108 3.062 4.377.386.13.794.181 1.2.15.405-.032.801-.144 1.162-.332.259-.346 2.448-3.581 2.621-4.714.062-1.671.03-3.344-.096-5.011-.032-.588-.228-1.155-.568-1.636-.34-.48-.809-.855-1.352-1.081-.585-.236-1.205-.372-1.834-.403z" fill="#fff" stroke="#263238" stroke-linecap="round" stroke-linejoin="round"/><path d="m228.298 112.522c-.032-.588-.228-1.155-.568-1.636s-.809-.856-1.352-1.081c-.585-.236-1.205-.373-1.834-.403 0 0-3.408-.269-4.195 2.006-.372 1.296-.502 2.65-.384 3.994.163.201.739.806.653 0-.087-.807-.202-3.62.499-4.215s.806-1.113 1.805-.307c.998.806.912 1.507 1.92.96s1.209-1.613 2.112-1.21c.902.404.604 2.314.604 3.216 0 .903 0 2.612.605 1.815.111-.172.201-.355.269-.547-.038-.874-.096-1.834-.134-2.592z" fill="#263238" stroke="#263238" stroke-linecap="round" stroke-linejoin="round"/><path d="m237.926 109.776h17.856" stroke="#fff" stroke-linecap="round" stroke-linejoin="round" stroke-width="2"/><path d="m237.926 115.997h54.653" stroke="#fff" stroke-linecap="round" stroke-linejoin="round"/><path d="m237.926 121.133h54.653" stroke="#fff" stroke-linecap="round" stroke-linejoin="round"/><path d="m237.926 126.816h54.653" stroke="#fff" stroke-linecap="round" stroke-linejoin="round"/><path d="m294.346 231.85h-80.4c-.805-.002-1.602.156-2.346.463-.743.308-1.419.759-1.988 1.328s-1.02 1.244-1.328 1.988c-.307.744-.464 1.541-.463 2.345v32.928l7.248-7.68h79.277c1.625 0 3.184-.645 4.334-1.793s1.797-2.706 1.8-4.331v-19.124c0-.805-.159-1.602-.467-2.346-.309-.743-.761-1.419-1.33-1.988-.57-.569-1.246-1.02-1.991-1.327-.744-.307-1.541-.465-2.346-.463z" fill="#a3a3a3"/><path d="m231.727 250.919c3.475-3.286 3.63-8.766.344-12.242-3.285-3.476-8.766-3.63-12.241-.345-3.476 3.285-3.63 8.766-.345 12.242 3.285 3.475 8.766 3.63 12.242.345z" fill="#fff"/><path d="m228.576 244.733s.902-1.21 1.104 0c.202 1.209-1.546 2.717-1.546 2.717z" fill="#fff" stroke="#263238" stroke-linecap="round" stroke-linejoin="round"/><path d="m219.907 244.733s-.902-1.21-1.104 0c-.201 1.209 1.546 2.717 1.546 2.717z" fill="#fff" stroke="#263238" stroke-linecap="round" stroke-linejoin="round"/><path d="m224.544 238.79s-3.408-.259-4.195 2.007c-.54 2.185-.54 4.468 0 6.653.259.691 2.448 4.108 3.062 4.368.386.129.793.18 1.198.151.406-.03.801-.14 1.164-.324.259-.355 2.448-3.591 2.621-4.723.062-1.671.03-3.344-.096-5.012-.034-.587-.231-1.153-.571-1.633-.339-.481-.807-.856-1.349-1.083-.586-.232-1.205-.368-1.834-.404z" fill="#fff" stroke="#263238" stroke-linecap="round" stroke-linejoin="round"/><path d="m228.298 241.92c-.034-.587-.231-1.153-.571-1.634-.339-.48-.807-.855-1.349-1.083-.586-.231-1.205-.367-1.834-.403 0 0-3.408-.259-4.195 2.006-.372 1.297-.502 2.65-.384 3.994.163.202.739.816.653 0-.087-.816-.202-3.619.499-4.224s.806-1.104 1.805-.307c.998.797.912 1.517 1.92 1.008s1.209-1.603 2.112-1.2c.902.403.604 2.304.604 3.216s0 2.611.605 1.805c.113-.171.203-.355.269-.548-.038-.883-.096-1.872-.134-2.63z" fill="#263238" stroke="#263238" stroke-linecap="round" stroke-linejoin="round"/><path d="m237.926 239.165h17.856" stroke="#fff" stroke-linecap="round" stroke-linejoin="round" stroke-width="2"/><path d="m237.926 245.386h54.653" stroke="#fff" stroke-linecap="round" stroke-linejoin="round"/><path d="m237.926 250.531h54.653" stroke="#fff" stroke-linecap="round" stroke-linejoin="round"/><path d="m237.926 256.214h54.653" stroke="#fff" stroke-linecap="round" stroke-linejoin="round"/><path d="m336.96 189.264h-80.371c-1.625 0-3.182.645-4.331 1.794s-1.794 2.706-1.794 4.331v19.123c0 1.624.645 3.182 1.794 4.331 1.149 1.148 2.706 1.794 4.331 1.794h79.286l7.248 7.68v-32.928c0-.808-.159-1.607-.47-2.353-.31-.746-.764-1.422-1.337-1.992-.573-.569-1.253-1.019-2-1.325-.748-.305-1.548-.46-2.356-.455z" fill="#a3a3a3"/><path d="m266.88 211.363c4.761 0 8.621-3.859 8.621-8.621 0-4.761-3.86-8.62-8.621-8.62s-8.621 3.859-8.621 8.62c0 4.762 3.86 8.621 8.621 8.621z" fill="#fff"/><path d="m271.219 202.147s.96-1.2 1.104 0-1.536 2.717-1.536 2.717z" fill="#fff" stroke="#263238" stroke-linecap="round" stroke-linejoin="round"/><path d="m262.56 202.147s-.902-1.2-1.104 0 1.584 2.717 1.584 2.717z" fill="#fff" stroke="#263238" stroke-linecap="round" stroke-linejoin="round"/><path d="m267.197 196.205s-3.408-.259-4.195 2.006c-.545 2.184-.545 4.469 0 6.653.259.691 2.448 4.109 3.052 4.368.386.129.793.181 1.199.151.405-.03.801-.14 1.163-.324.269-.355 2.448-3.59 2.621-4.723.072-1.671.04-3.344-.096-5.011-.031-.588-.228-1.155-.568-1.636s-.808-.855-1.352-1.081c-.582-.233-1.198-.369-1.824-.403z" fill="#fff" stroke="#263238" stroke-linecap="round" stroke-linejoin="round"/><path d="m270.941 199.325c-.031-.588-.228-1.155-.568-1.636s-.808-.855-1.352-1.081c-.582-.233-1.198-.369-1.824-.403 0 0-3.408-.259-4.195 2.006-.371 1.297-.504 2.65-.394 3.994.173.201.739.816.653.048-.096-.96-.202-3.619.509-4.224.71-.605.796-1.104 1.804-.298 1.008.807.903 1.507 1.92.96 1.018-.547 1.21-1.603 2.112-1.2.903.403.605 2.304.605 3.216s0 2.611.595 1.805c.117-.168.207-.353.269-.547-.038-.874-.086-1.872-.134-2.64z" fill="#263238" stroke="#263238" stroke-linecap="round" stroke-linejoin="round"/><path d="m263.77 198.029c.386.567.889 1.044 1.475 1.4s1.242.582 1.923.664c.648.132 1.316.133 1.965.001.648-.132 1.263-.394 1.808-.769 0 0 1.094 0 1.094-1.296s.365-.749-1.497-.749c-1.863 0-6.269-3.475-6.768.749z" fill="#263238" stroke="#263238" stroke-linecap="round" stroke-linejoin="round"/><path d="m266.746 202.704h-3.389l.365 1.123c.034.106.101.198.19.263.09.066.198.101.309.102h1.747c.118-.001.232-.041.324-.114s.157-.175.185-.289z" fill="#fff" stroke="#263238" stroke-linecap="round" stroke-linejoin="round"/><path d="m270.499 202.704h-3.389l.365 1.123c.034.106.101.198.191.263.089.066.197.101.308.102h1.786c.118.001.233-.039.325-.112.093-.073.158-.176.184-.291z" fill="#fff" stroke="#263238" stroke-linecap="round" stroke-linejoin="round"/><path d="m280.57 196.579h17.856" stroke="#fff" stroke-linecap="round" stroke-linejoin="round" stroke-width="2"/><path d="m280.57 202.8h54.652" stroke="#fff" stroke-linecap="round" stroke-linejoin="round"/><path d="m280.57 207.946h54.652" stroke="#fff" stroke-linecap="round" stroke-linejoin="round"/><path d="m280.57 213.629h54.652" stroke="#fff" stroke-linecap="round" stroke-linejoin="round"/><path d="m295.488 147.648h-80.4c-1.627 0-3.187.646-4.338 1.797-1.15 1.15-1.796 2.71-1.796 4.337v32.928l7.248-7.68h79.286c1.624 0 3.182-.645 4.331-1.794 1.149-1.148 1.794-2.706 1.794-4.33v-19.124c.001-.805-.156-1.602-.464-2.346-.307-.745-.758-1.421-1.327-1.991-.569-.569-1.244-1.021-1.988-1.33-.744-.308-1.541-.467-2.346-.467z" fill="#27bfab"/><path d="m226.41 172.002c4.695-.789 7.862-5.235 7.073-9.931-.789-4.695-5.235-7.861-9.931-7.072-4.695.789-7.862 5.235-7.072 9.93.789 4.695 5.235 7.862 9.93 7.073z" fill="#fff"/><path d="m223.901 156.95c-.408-.165-.846-.247-1.286-.24-.441.008-.875.104-1.278.283-.402.179-.765.438-1.065.761-.3.322-.532.702-.682 1.116-1.18 3.12.298 7.421.298 9.197s1.786 3.274 3.715 3.418c1.93.144 4.455.441 5.933-1.92 1.478-2.362.893-7.565.298-10.56-.596-2.995-3.86-2.208-5.933-2.055z" fill="#fff" stroke="#263238" stroke-linecap="round" stroke-linejoin="round"/><path d="m229.325 162.902s.96-1.209 1.113 0c.154 1.21-1.545 2.717-1.545 2.717z" fill="#fff" stroke="#263238" stroke-linecap="round" stroke-linejoin="round"/><path d="m220.666 162.902s-.903-1.209-1.104 0c-.202 1.21 1.545 2.717 1.545 2.717z" fill="#fff" stroke="#263238" stroke-linecap="round" stroke-linejoin="round"/><path d="m225.302 156.96s-3.408-.259-4.195 2.006c-.545 2.184-.545 4.469 0 6.653.259.691 2.448 4.109 3.053 4.368.385.13.793.181 1.198.151.406-.029.801-.14 1.164-.324.268-.355 2.448-3.59 2.63-4.723.062-1.671.03-3.344-.096-5.011-.035-.587-.233-1.153-.572-1.633s-.806-.855-1.348-1.084c-.585-.234-1.204-.37-1.834-.403z" fill="#fff" stroke="#263238" stroke-linecap="round" stroke-linejoin="round"/><path d="m222.72 157.843s5.51 5.059 6.614 5.059 1.248-3.724.068-5.51c-1.181-1.786-6.836-2.832-6.682.451z" fill="#fff" stroke="#263238" stroke-linecap="round" stroke-linejoin="round"/><path d="m238.003 154.397h17.856" stroke="#263238" stroke-linecap="round" stroke-linejoin="round" stroke-width="2"/><path d="m238.003 160.618h54.653" stroke="#263238" stroke-linecap="round" stroke-linejoin="round"/><path d="m238.003 165.754h54.653" stroke="#263238" stroke-linecap="round" stroke-linejoin="round"/><path d="m238.003 171.437h54.653" stroke="#263238" stroke-linecap="round" stroke-linejoin="round"/><path d="m199.008 101.184h-33.984v210.106h33.984z" fill="#27bfab"/><path d="m188.773 169.397c4.247-4.248 4.247-11.135 0-15.382-4.248-4.248-11.135-4.248-15.382 0-4.248 4.247-4.248 11.134 0 15.382 4.247 4.247 11.134 4.247 15.382 0z" fill="#fff"/><path d="m179.722 153.446s-3.936-1.497-5.434 2.439.374 9.36.374 11.606c0 2.247 2.247 4.119 4.685 4.311 2.439.192 5.616.556 7.488-2.439s1.123-9.552.375-13.296c-.749-3.744-4.868-2.813-7.488-2.621z" fill="#fff" stroke="#263238" stroke-linecap="round" stroke-linejoin="round"/><path d="m186.566 160.954s1.143-1.517 1.402 0c.259 1.516-1.92 3.427-1.92 3.427z" fill="#fff" stroke="#263238" stroke-linecap="round" stroke-linejoin="round"/><path d="m175.68 160.954s-1.142-1.517-1.402 0c-.259 1.516 1.92 3.427 1.92 3.427z" fill="#fff" stroke="#263238" stroke-linecap="round" stroke-linejoin="round"/><path d="m181.488 153.456s-4.301-.326-5.299 2.534c-.999 2.861-.327 7.508 0 8.391.326.883 3.091 5.184 3.84 5.51.749.327 2.649.221 2.985-.221.336-.441 3.092-4.521 3.303-5.952.099-2.092.073-4.189-.077-6.278-.042-.742-.292-1.457-.722-2.063-.429-.606-1.021-1.079-1.707-1.364-.739-.311-1.523-.499-2.323-.557z" fill="#fff" stroke="#263238" stroke-linecap="round" stroke-linejoin="round"/><path d="m178.224 154.56s6.95 6.384 8.342 6.384 1.575-4.694.077-6.95c-1.497-2.256-8.611-3.543-8.419.566z" fill="#fff" stroke="#263238" stroke-linecap="round" stroke-linejoin="round"/><path d="m183.577 135.769c5.848-1.374 9.475-7.228 8.101-13.076s-7.228-9.475-13.076-8.101c-5.848 1.373-9.475 7.228-8.101 13.076 1.373 5.848 7.228 9.475 13.076 8.101z" fill="#fff"/><path d="m186.566 124.445s1.143-1.527 1.402 0c.259 1.526-1.92 3.417-1.92 3.417z" fill="#fff" stroke="#263238" stroke-linecap="round" stroke-linejoin="round"/><path d="m175.68 124.445s-1.142-1.527-1.402 0c-.259 1.526 1.92 3.417 1.92 3.417z" fill="#fff" stroke="#263238" stroke-linecap="round" stroke-linejoin="round"/><path d="m181.488 116.947s-4.301-.336-5.299 2.535c-.999 2.87-.327 7.497 0 8.38.326.884 3.091 5.184 3.84 5.52s2.649.221 2.985-.22c.336-.442 3.092-4.522 3.303-5.962.088-2.106.05-4.215-.115-6.317-.04-.742-.29-1.458-.719-2.065-.43-.606-1.023-1.078-1.71-1.362-.728-.295-1.5-.467-2.285-.509z" fill="#fff" stroke="#263238" stroke-linecap="round" stroke-linejoin="round"/><path d="m186.24 120.883c-.04-.742-.289-1.458-.719-2.065-.43-.606-1.023-1.078-1.71-1.362-.734-.297-1.513-.469-2.304-.509 0 0-4.301-.336-5.299 2.535-.466 1.636-.632 3.344-.49 5.04.221.249.96 1.017.826 0-.125-1.143-.25-4.56.634-5.328.883-.768 1.017-1.392 2.284-.375 1.268 1.018 1.143 1.92 2.41 1.267 1.267-.652 1.517-2.035 2.659-1.526 1.143.509.768 2.88.768 4.061s0 3.293.759 2.285c.14-.216.253-.448.336-.692-.058-1.113-.154-2.371-.154-3.331z" fill="#263238" stroke="#263238" stroke-linecap="round" stroke-linejoin="round"/><path d="m181.085 208.886c6.007 0 10.877-4.869 10.877-10.876 0-6.008-4.87-10.877-10.877-10.877s-10.877 4.869-10.877 10.877c0 6.007 4.87 10.876 10.877 10.876z" fill="#fff"/><path d="m186.566 197.261s1.143-1.517 1.402 0-1.92 3.427-1.92 3.427z" fill="#fff" stroke="#263238" stroke-linecap="round" stroke-linejoin="round"/><path d="m175.68 197.261s-1.142-1.517-1.402 0c-.259 1.517 1.92 3.427 1.92 3.427z" fill="#fff" stroke="#263238" stroke-linecap="round" stroke-linejoin="round"/><path d="m181.488 189.763s-4.301-.336-5.299 2.535c-.999 2.87-.327 7.507 0 8.39.326.883 3.091 5.184 3.84 5.51.749.327 2.649.221 2.985-.22.336-.442 3.092-4.522 3.303-5.952.088-2.11.05-4.222-.115-6.327-.04-.742-.29-1.458-.719-2.065-.43-.606-1.023-1.078-1.71-1.362-.73-.29-1.501-.462-2.285-.509z" fill="#fff" stroke="#263238" stroke-linecap="round" stroke-linejoin="round"/><path d="m186.24 193.699c-.04-.742-.289-1.458-.719-2.065-.43-.606-1.023-1.078-1.71-1.362-.735-.292-1.513-.464-2.304-.509 0 0-4.301-.336-5.299 2.535-.466 1.636-.631 3.344-.49 5.04.221.249.96 1.027.826.048-.125-1.133-.25-4.56.634-5.319.883-.758 1.017-1.401 2.284-.384 1.268 1.018 1.143 1.92 2.41 1.267 1.267-.652 1.517-2.025 2.659-1.516 1.143.508.768 2.88.768 4.051s0 3.302.759 2.285c.138-.213.251-.442.336-.682-.058-1.162-.154-2.419-.154-3.389z" fill="#263238" stroke="#263238" stroke-linecap="round" stroke-linejoin="round"/><path d="m177.158 192.067c1.029 1.362 2.533 2.286 4.213 2.588 1.679.302 3.411-.039 4.85-.956 0 0 1.363 0 1.363-1.632s.48-.96-1.92-.96-7.872-4.368-8.506.96z" fill="#263238" stroke="#263238" stroke-linecap="round" stroke-linejoin="round"/><path d="m180.922 197.971h-4.282l.451 1.411c.045.133.13.248.244.329s.25.124.39.123h2.198c.148 0 .291-.049.408-.14.116-.09.199-.217.235-.36z" fill="#fff" stroke="#263238" stroke-linecap="round" stroke-linejoin="round"/><path d="m185.654 197.971h-4.272l.452 1.411c.045.132.131.246.245.327.113.081.249.124.388.125h2.208c.147.001.29-.048.405-.138.115-.091.196-.219.229-.362z" fill="#fff" stroke="#263238" stroke-linecap="round" stroke-linejoin="round"/><path d="m174.125 141.466h13.997" stroke="#263238" stroke-linecap="round" stroke-linejoin="round" stroke-width="2"/><path d="m174.125 177.245h13.997" stroke="#263238" stroke-linecap="round" stroke-linejoin="round" stroke-width="2"/><path d="m174.125 213.034h13.997" stroke="#263238" stroke-linecap="round" stroke-linejoin="round" stroke-width="2"/><path d="m81.5999 283.037s0-3.331-4.656-7.997c-4.656-4.665-7.68-7.325-7.68-7.325s-2.3328 7.68 1.9968 12.327c3.1908 3.277 6.6492 6.283 10.3392 8.985z" fill="#27bfab"/><path d="m74.8799 303.831s0-3.332-4.656-7.988-7.68-7.334-7.68-7.334-2.3328 7.68 1.9968 12.326c3.1908 3.278 6.6492 6.283 10.3392 8.986z" fill="#27bfab"/><path d="m81.3311 288.71s.3456-3.311 5.4816-7.459c5.136-4.147 8.3808-6.47 8.3808-6.47s1.5168 7.862-3.2832 12.038c-3.5126 2.922-7.2633 5.546-11.2128 7.844z" fill="#27bfab"/><path d="m73.1519 313.267s.7008-3.254 6.24-6.835 9.024-5.558 9.024-5.558.672 7.977-4.5408 11.625c-3.7996 2.537-7.8039 4.752-11.9712 6.624z" fill="#27bfab"/><path d="m74.6879 340.042s0-3.331 4.6656-7.987 7.68-7.335 7.68-7.335 2.3328 7.68-1.9968 12.326c-3.1869 3.278-6.6421 6.284-10.3296 8.986z" fill="#27bfab"/><path d="m74.6112 346.56s.48-3.302-3.4752-8.573c-3.9552-5.27-6.5376-8.342-6.5376-8.342s-3.3985 7.248.2207 12.48c2.6886 3.699 5.6814 7.167 8.9473 10.368z" fill="#27bfab"/><path d="m70.0127 365.952s0-3.331 4.6656-7.997c4.6656-4.665 7.68-7.325 7.68-7.325s2.3328 7.681-1.9968 12.317c-3.1852 3.283-6.6406 6.292-10.3296 8.996z" fill="#27bfab"/><path d="m73.1327 383.511s-.8448-3.226 2.4864-8.909 5.5488-9.034 5.5488-9.034 4.1952 6.826 1.1904 12.423c-2.2402 3.98-4.8091 7.766-7.68 11.318z" fill="#27bfab"/><path d="m82.0415 282.183c-.2315 3.467-.6578 6.919-1.2768 10.339-1.8432 9.523-6.4512 15.638-8.2944 24.278s3.456 19.68 2.0352 30.72-5.76 17.184-4.4928 24.557 7.68 27.331 7.68 27.331" stroke="#263238" stroke-linecap="round" stroke-linejoin="round" stroke-width=".5"/><path d="m81.2831 290.919 5.0208-3.86" stroke="#263238" stroke-linecap="round" stroke-linejoin="round" stroke-width=".5"/><path d="m81.5135 286.483-2.1024-3.744" stroke="#263238" stroke-linecap="round" stroke-linejoin="round" stroke-width=".5"/><path d="m72.7487 316.387s4.2144-3.148 8.5344-6.307" stroke="#263238" stroke-linecap="round" stroke-linejoin="round" stroke-width=".5"/><path d="m74.8799 309.821c-2.0969-4.051-4.5993-7.878-7.4688-11.424" stroke="#263238" stroke-linecap="round" stroke-linejoin="round" stroke-width=".5"/><path d="m74.8799 344.775c2.3986-4.425 5.4288-8.478 8.9952-12.029" stroke="#263238" stroke-linecap="round" stroke-linejoin="round" stroke-width=".5"/><path d="m74.0351 349.44c-1.2756-3.001-2.7976-5.89-4.5504-8.64-2.4576-3.629-2.8032-4.089-2.8032-4.089" stroke="#263238" stroke-linecap="round" stroke-linejoin="round" stroke-width=".5"/><path d="m70.0127 372.067c1.0671-2.652 2.3347-5.22 3.792-7.68 1.4588-2.266 3.1028-4.408 4.9152-6.403" stroke="#263238" stroke-linecap="round" stroke-linejoin="round" stroke-width=".5"/><path d="m74.6495 389.309c-.2421-2.526.1919-5.07 1.2576-7.373 1.7568-3.389 3.744-7.833 4.56-9.6" stroke="#263238" stroke-linecap="round" stroke-linejoin="round" stroke-width=".5"/><path d="m51.0911 327.523s-.3552-2.092 2.0544-5.52c2.4096-3.427 4.0128-5.424 4.0128-5.424s2.2944 4.551.0864 7.94c-1.6413 2.39-3.4814 4.638-5.5008 6.72z" fill="#27bfab"/><path d="m57.5999 339.84s-.3552-2.083 2.064-5.51 4.0032-5.424 4.0032-5.424 2.2944 4.55.0864 7.939c-1.6442 2.389-3.4841 4.636-5.5008 6.72z" fill="#27bfab"/><path d="m51.8975 331.047s-.5856-2.045-4.2528-4.08c-3.6672-2.036-5.9616-3.149-5.9616-3.149s-.096 5.088 3.3696 7.19c2.5191 1.453 5.1555 2.693 7.8816 3.706z" fill="#27bfab"/><path d="m59.6831 345.6s-.7872-1.92-4.6464-3.619-6.2592-2.506-6.2592-2.506.4416 5.079 4.0992 6.807c2.6612 1.186 5.4162 2.149 8.2368 2.88z" fill="#27bfab"/><path d="m61.6319 362.515s-.3648-2.092-3.84-4.502-5.5488-3.773-5.5488-3.773-.6336 5.05 2.5824 7.507c2.3519 1.711 4.8439 3.221 7.4496 4.512z" fill="#27bfab"/><path d="m62.4 366.605s-.6624-2.016 1.248-5.76 3.1968-5.942 3.1968-5.942 2.88 4.176 1.2096 7.852c-1.2823 2.611-2.7819 5.11-4.4832 7.469z" fill="#27bfab"/><path d="m68.2368 383.443s.24-2.102 3.5328-4.713 5.3664-4.071 5.3664-4.071.96 5.012-2.1504 7.68c-2.2536 1.84-4.6554 3.491-7.1809 4.935z" fill="#27bfab"/><path d="m67.3727 378.24s-.3648-2.083-3.84-4.502c-3.4752-2.42-5.5968-3.764-5.5968-3.764s-.6336 5.06 2.592 7.508c2.3514 1.714 4.8434 3.227 7.4496 4.521z" fill="#27bfab"/><path d="m67.3247 389.606s.1825-2.112-2.5247-5.318-4.464-5.088-4.464-5.088-1.92 4.733.6048 7.92c1.8451 2.251 3.8745 4.345 6.0672 6.259z" fill="#27bfab"/><path d="m50.7359 327.034c.5252 2.148 1.1661 4.266 1.92 6.345 2.1888 5.76 5.76 9.12 7.8336 14.314 2.0736 5.193 0 12.71 2.064 19.488 2.064 6.777 5.4528 10.157 5.4816 14.909s-1.7952 17.971-1.7952 17.971" stroke="#263238" stroke-linecap="round" stroke-linejoin="round" stroke-width=".5"/><path d="m52.1663 332.429-3.5712-1.872" stroke="#263238" stroke-linecap="round" stroke-linejoin="round" stroke-width=".5"/><path d="m51.5327 329.664.912-2.573" stroke="#263238" stroke-linecap="round" stroke-linejoin="round" stroke-width=".5"/><path d="m60.2783 347.52s-2.9856-1.517-6.0384-3.033" stroke="#263238" stroke-linecap="round" stroke-linejoin="round" stroke-width=".5"/><path d="m58.2431 343.584c.8745-2.769 2.0293-5.442 3.4464-7.977" stroke="#263238" stroke-linecap="round" stroke-linejoin="round" stroke-width=".5"/><path d="m62.0351 365.501c-1.9853-2.512-4.323-4.723-6.9408-6.566" stroke="#263238" stroke-linecap="round" stroke-linejoin="round" stroke-width=".5"/><path d="m63.0623 368.343c.4714-2.022 1.1137-4.001 1.92-5.914 1.1424-2.534 1.3152-2.88 1.3152-2.88" stroke="#263238" stroke-linecap="round" stroke-linejoin="round" stroke-width=".5"/><path d="m67.8719 385.699c1.161-1.438 2.4459-2.771 3.84-3.984.888-.656 1.7226-1.381 2.4961-2.169" stroke="#263238" stroke-linecap="round" stroke-linejoin="round" stroke-width=".5"/><path d="m68.0351 382.08c-.9545-1.546-2.0264-3.015-3.2064-4.397-1.1615-1.264-2.4232-2.433-3.7728-3.494" stroke="#263238" stroke-linecap="round" stroke-linejoin="round" stroke-width=".5"/><path d="m67.0079 393.408c-.1212-1.613-.6714-3.164-1.5936-4.493-1.4688-1.92-3.1968-4.502-3.8976-5.51" stroke="#263238" stroke-linecap="round" stroke-linejoin="round" stroke-width=".5"/><path d="m56.64 397.757h30.5184v22.358c0 .764-.3035 1.497-.8436 2.037s-1.2726.843-2.0364.843h-24.6912c-.7639 0-1.4964-.303-2.0365-.843s-.8435-1.273-.8435-2.037v-22.358z" fill="#263238"/><path d="m86.8991 401.741h-30.2592c-.6273-.008-1.2265-.262-1.6683-.707s-.6908-1.047-.6933-1.674c-.0025-.631.2442-1.237.6866-1.686.4423-.45 1.0444-.706 1.675-.714h30.2592c.3139.001.6245.064.9141.186.2895.121.5523.298.7734.521s.3961.487.5151.778c.1189.29.1795.601.1782.915-.0025.631-.2541 1.235-.7001 1.681-.4459.446-1.05.697-1.6807.7z" fill="#263238"/><path d="m373.507 290.717h-47.107c-3.504 0-3.629.422-3.629 3.609v62.468h54.346v-62.468c.019-3.187-.106-3.609-3.61-3.609z" fill="#27bfab" stroke="#263238" stroke-linecap="round" stroke-linejoin="round"/><path d="m351.581 374.371h-4.359v35.194h4.359z" fill="#263238"/><path d="m354.192 381.235h-9.59v29.203h9.59z" fill="#263238"/><path d="m364.656 366.518h-30.518v10.464h30.518z" fill="#263238"/><path d="m318.086 423.36c1.177 0 2.132-.954 2.132-2.131s-.955-2.131-2.132-2.131-2.131.954-2.131 2.131.954 2.131 2.131 2.131z" fill="#263238"/><path d="m382.838 421.229c0-.422-.125-.834-.359-1.184-.234-.351-.567-.624-.956-.785-.39-.162-.818-.204-1.232-.122-.413.083-.793.286-1.091.584s-.501.678-.583 1.091-.04.842.121 1.231c.161.39.435.723.785.957.351.234.763.359 1.184.359.565 0 1.107-.225 1.507-.624.4-.4.624-.942.624-1.507z" fill="#263238"/><path d="m344.602 410.438-28.896 6.903v2.006l33.35-2.755v-6.278z" fill="#263238"/><path d="m354.192 410.438 28.906 6.903v2.006l-33.36-2.755v-6.278z" fill="#263238"/><path d="m349.517 423.36c-.203 0-.404-.04-.592-.118-.187-.077-.358-.191-.501-.335-.144-.143-.257-.314-.335-.501-.078-.188-.118-.389-.118-.592v-6.432c0-.41.163-.805.452-1.096.29-.291.683-.456 1.094-.459.411.003.804.168 1.093.459.29.291.452.686.452 1.096v6.432c0 .203-.04.404-.117.592-.078.187-.192.358-.335.501-.144.144-.314.258-.502.335-.187.078-.388.118-.591.118z" fill="#263238"/><path d="m347.213 419.846h4.598v-9.532h-4.598z" fill="#263238"/><path d="m377.501 352.186h-55.258c-1.193 0-2.16.967-2.16 2.16v11.088c0 1.193.967 2.16 2.16 2.16h55.258c1.193 0 2.16-.967 2.16-2.16v-11.088c0-1.193-.967-2.16-2.16-2.16z" fill="#27bfab" stroke="#263238" stroke-linecap="round" stroke-linejoin="round"/><path d="m333.245 331.613-3.571 7.19 9.571 13.104h27.273l6.452-11.04-3.168-9.254z" fill="#263238" stroke="#263238" stroke-linecap="round" stroke-linejoin="round"/><path d="m329.674 338.803s-5.29 3.322-6.528 8.765c-.605 2.669 4.656 12.048 7.68 13.056 2.88.96 19.046-10.483 19.046-10.483" fill="#263238"/><path d="m329.674 338.803s-5.29 3.322-6.528 8.765c-.605 2.669 4.656 12.048 7.68 13.056 2.88.96 19.046-10.483 19.046-10.483" stroke="#263238" stroke-linecap="round" stroke-linejoin="round"/><path d="m330.874 341.597s-6.24-.96-7.796 3.542c-1.084 3.159.336 12.48.692 13.546.355 1.065 6.393 52.8 6.393 52.8h8.506l2.88-65.28" fill="#263238"/><path d="m330.874 341.597s-6.24-.96-7.796 3.542c-1.084 3.159.336 12.48.692 13.546.355 1.065 6.393 52.8 6.393 52.8h8.506l2.88-65.28" stroke="#263238" stroke-linecap="round" stroke-linejoin="round"/><path d="m330.163 411.485-.96 3.965-9.331 5.596s.298 1.767 1.709 1.767h16.166c.298.008.595-.049.869-.166.274-.118.519-.294.718-.516s.347-.485.435-.77c.087-.285.111-.586.071-.881l-1.133-9.034z" fill="#fff" stroke="#263238" stroke-linecap="round" stroke-linejoin="round"/><path d="m319.92 421.171c.096.394.49 1.642 1.68 1.642h16.166c.471-.002.927-.166 1.291-.465.364-.3.613-.715.706-1.177z" fill="#fff" stroke="#263238" stroke-linecap="round" stroke-linejoin="round"/><path d="m329.222 415.45c2.27-.145 4.549.01 6.778.46" stroke="#263238" stroke-linecap="round" stroke-linejoin="round"/><path d="m335.51 419.126-2.726 3.456" stroke="#263238" stroke-linecap="round" stroke-linejoin="round"/><path d="m371.52 338.803s5.29 3.322 6.528 8.765c.605 2.669-4.656 12.048-7.68 13.056-2.88.96-19.046-10.483-19.046-10.483" fill="#263238"/><path d="m371.52 338.803s5.29 3.322 6.528 8.765c.605 2.669-4.656 12.048-7.68 13.056-2.88.96-19.046-10.483-19.046-10.483" stroke="#263238" stroke-linecap="round" stroke-linejoin="round"/><path d="m370.282 341.597s6.24-.96 7.795 3.542c1.085 3.159-.336 12.48-.691 13.546-.356 1.065-6.394 52.8-6.394 52.8h-8.506l-2.832-65.28" fill="#263238"/><g stroke-linecap="round" stroke-linejoin="round"><path d="m370.282 341.597s6.24-.96 7.795 3.542c1.085 3.159-.336 12.48-.691 13.546-.356 1.065-6.394 52.8-6.394 52.8h-8.506l-2.832-65.28" stroke="#263238"/><path d="m370.992 411.485.96 3.965 9.331 5.596s-.297 1.767-1.709 1.767h-16.185c-.29-.001-.576-.063-.84-.182s-.5-.293-.692-.509c-.192-.217-.336-.472-.423-.748-.087-.277-.114-.568-.08-.856l1.132-9.033z" fill="#fff" stroke="#263238"/><path d="m381.235 421.171c-.096.394-.489 1.642-1.68 1.642h-16.166c-.471-.002-.927-.166-1.291-.465-.364-.3-.613-.715-.706-1.177z" fill="#fff" stroke="#263238"/><path d="m371.933 415.45c-2.27-.145-4.549.01-6.778.46" stroke="#263238"/><path d="m365.645 419.126 2.726 3.456" stroke="#263238"/><path d="m356.659 274.8-1.065.538-9.572-.25-1.017.883v-.633l-1.066-.538-19.123 8.899 8.429 47.914h36.557l5.808-47.914z" fill="#fff" stroke="#263238"/><path d="m343.43 273.11s-3.926 2.64-3.926 3.466-.557 9.6-.557 9.6l4.954-1.651 6.72 5.76 6.528-5.511 6.057 1.383-1.92-10.186-7.43-4.953z" fill="#fff" stroke="#263238"/><path d="m375.61 283.699 16.723 28.349-12.528 1.44-6.624-9.245z" fill="#fff" stroke="#263238"/><path d="m324.998 283.699-16.627 28.349 12.528 1.44 9.552-10.752z" fill="#fff" stroke="#263238"/><path d="m357.686 278.995-7.094 11.347-6.941-11.347v-16.55h14.035z" fill="#fff" stroke="#263238"/><path d="m342.125 258.048s-2.602-.682-2.343 1.142c.26 1.824 1.047 5.213 2.343 5.991l1.305.777z" fill="#fff" stroke="#263238"/><path d="m359.558 258.048s2.602-.682 2.343 1.142-1.047 5.213-2.343 5.991l-1.305.777z" fill="#fff" stroke="#263238"/><path d="m360.778 255.024c-.081-2.57-1.158-5.009-3.004-6.799-1.847-1.79-4.318-2.79-6.889-2.79-2.572 0-5.043 1-6.889 2.79-1.847 1.79-2.924 4.229-3.004 6.799.003 1.026.161 2.046.47 3.024l2.525 11.846 4.599 6.452h4.435l4.464-5.616 2.726-12.404c.376-1.06.568-2.177.567-3.302z" fill="#fff" stroke="#263238"/><path d="m358.656 254.246c-.559 1.237-.912 2.557-1.046 3.908.22 1.613.66 3.189 1.305 4.684 0 0 3.12-6.508 2.88-8.851-.24-2.342-3.408-.547-3.139.259z" fill="#263238" stroke="#263238"/><path d="m342.25 262.32s0-.413.067-1.018c.144-1.68.537-4.924 1.497-5.491 1.296-.787 1.162-4.896 1.162-4.896s-1.814 2.055 4.435 4.138c6.25 2.083 11.319 1.277 14.707-3.149 3.389-4.426.26-7.555-.259-5.99-.518 1.564-1.565 3.648-3.389 2.083s-4.684-4.685-9.888-4.685c-5.203 0-7.555 4.685-7.555 4.685-.837.406-1.547 1.033-2.055 1.812-.507.78-.792 1.684-.825 2.613.019 3.12 2.103 9.898 2.103 9.898z" fill="#263238" stroke="#263238"/><path d="m360.566 254.074c-3.686.153-6.825-2.333-10.022-4.522s-5.376 0-5.376 0c.249-1.19.884-2.265 1.805-3.058.922-.793 2.079-1.26 3.293-1.329 4.348-.279 5.76 5.693 9.82 6.211" stroke="#fff" stroke-width=".5"/><path d="m350.179 262.08h-8.717l.96 2.88c.081.276.249.519.479.692s.51.267.798.268h4.503c.299-.001.59-.102.826-.286s.405-.441.479-.732z" fill="#fff" stroke="#263238"/><path d="m359.837 262.08h-8.707l.96 2.88c.084.276.254.518.485.691.232.173.512.267.801.269h4.502c.3-.001.591-.102.827-.286s.405-.441.479-.732z" fill="#fff" stroke="#263238"/><path d="m341.462 262.099-.441-4.253" stroke="#263238"/><path d="m359.837 262.099.998-4.032" stroke="#263238"/><path d="m350.179 262.099h.951" stroke="#263238"/><path d="m349.939 263.453h1.536" stroke="#263238"/><path d="m352.464 268.954s-.653.96-1.43.96c-.778 0-1.431-.96-1.431-.96" stroke="#263238"/><path d="m359.597 309.965s-3.639-3.178-4.56-2.88c-.922.297-1.997 4.291-1.21 5.309.787 1.017 2.525-2.458 2.525-2.458l3.274 4.522z" fill="#fff" stroke="#263238"/><path d="m359.04 311.376-3.37 1.21c-.777.946-1.737 1.726-2.822 2.294-1.546.682-2.333 1.411-.624 2.16s4.166-1.92 4.166-1.92l3.84.394c.205-.348.336-.733.387-1.132.05-.4.019-.806-.092-1.193-.112-.387-.301-.748-.556-1.059-.255-.312-.571-.568-.929-.754z" fill="#fff" stroke="#263238"/><path d="m362.342 317.866c1.023.565 2.209.765 3.36.566 1.863-.346 4.858-4.234 4.858-4.234l-1.507-2.784-5.76-.144z" fill="#fff" stroke="#263238"/><path d="m359.203 308.582s-2.131 5.578-1.872 6.49 3.84 3.12 5.011 2.794c.759-.212 2.314-2.151 3.312-3.456.24-.32.344-.72.29-1.116-.054-.395-.261-.753-.578-.996-1.852-1.412-5.366-3.946-6.163-3.716z" fill="#fff" stroke="#263238"/><path d="m359.059 316.406 2.621-6.451" stroke="#263238"/><path d="m364.416 312.029-3.61 5.481" stroke="#263238"/><path d="m366.538 311.136c.9 2.283 1.181 4.764.816 7.19l-.048.269 22.531 1.92c1.04-.145 1.991-.667 2.672-1.467.682-.8 1.046-1.822 1.024-2.872v-1.661c-.011-.575-.137-1.142-.372-1.668-.234-.525-.572-.998-.993-1.39-.421-.393-.917-.696-1.457-.893-.541-.197-1.116-.283-1.69-.254z" fill="#fff" stroke="#263238"/><path d="m334.502 309.965s3.629-3.178 4.551-2.88c.921.297 2.006 4.291 1.219 5.309-.787 1.017-2.525-2.458-2.525-2.458l-3.283 4.522z" fill="#fff" stroke="#263238"/><path d="m335.088 311.376 3.379 1.21c.775.948 1.736 1.729 2.823 2.294 1.536.682 2.323 1.411.623 2.16-1.699.749-4.166-1.92-4.166-1.92l-3.84.394c-.203-.347-.334-.732-.385-1.131-.05-.399-.019-.804.091-1.191.11-.386.298-.747.551-1.059.254-.312.568-.57.924-.757z" fill="#fff" stroke="#263238"/><path d="m331.747 317.866c-1.023.565-2.208.765-3.36.566-1.862-.346-4.857-4.234-4.857-4.234l1.507-2.784 5.76-.144z" fill="#fff" stroke="#263238"/><path d="m334.896 308.582s2.131 5.578 1.862 6.49c-.268.912-3.84 3.12-5.011 2.794-.749-.212-2.313-2.151-3.302-3.456-.24-.32-.344-.72-.29-1.116.054-.395.262-.753.578-.996 1.843-1.412 5.347-3.946 6.163-3.716z" fill="#fff" stroke="#263238"/><path d="m335.03 316.406-2.62-6.451" stroke="#263238"/><path d="m329.683 312.029 3.61 5.481" stroke="#263238"/><path d="m327.552 311.136c-.677 2.333-.883 4.777-.605 7.19v.269l-17.001 1.92c-1.623-.307-2.823-2.16-2.794-4.339v-1.661c0-2.429 1.574-4.329 3.398-4.205z" fill="#fff" stroke="#263238"/><path d="m367.171 315.235h-50.88v1.805h50.88z" fill="#fff" stroke="#263238"/><path d="m395.568 315.427h-25.363v1.421h25.363z" fill="#fff" stroke="#263238"/><path d="m415.747 267.225h-59.165v38.151h59.165z" fill="#fff" stroke="#263238"/><path d="m415.747 267.225h-57.456v38.151h57.456z" fill="#263238" stroke="#263238"/><path d="m396.269 284.813h-14.362v32.678h14.362z" fill="#fff" stroke="#263238"/><path d="m397.594 284.813h-14.362v32.678h14.362z" fill="#263238" stroke="#263238"/><path d="m382.281 285.197h15.649v22.377" stroke="#fff"/><path d="m266.755 305.904h-10.637v12.346h10.637z" fill="#fff" stroke="#263238"/><path d="m285.456 270.182h-49.411v37.056h49.411z" fill="#263238" stroke="#263238"/><path d="m282.873 272.122h-44.246v33.187h44.246z" fill="#fff" stroke="#263238"/><path d="m234.125 365.117 10.147 44.947 4.608-1.286-.307-45.591z" fill="#fff" stroke="#263238"/><path d="m244.272 410.064-6.144 10.954-1.238 2.256h6.768l5.222-7.412v7.095h2.275v-11.923l-2.275-2.256z" fill="#fff" stroke="#263238"/><path d="m272.362 365.117-10.148 44.947-4.608-1.286.308-45.591z" fill="#fff" stroke="#263238"/><path d="m262.215 410.064 6.153 10.954 1.229 2.256h-6.768l-5.222-7.412v7.095h-2.266v-11.923l2.266-2.256z" fill="#fff" stroke="#263238"/><path d="m265.978 309.427h-10.771v12.509h10.771z" fill="#fff" stroke="#263238"/><path d="m252.058 350.141c0 2.556-.758 5.054-2.178 7.179s-3.438 3.781-5.799 4.759-4.959 1.234-7.466.735c-2.506-.498-4.809-1.729-6.616-3.536s-3.038-4.11-3.536-6.616c-.499-2.507-.243-5.105.735-7.466s2.634-4.379 4.759-5.799 4.623-2.178 7.179-2.178c1.697 0 3.377.334 4.945.984 1.568.649 2.992 1.601 4.192 2.801s2.152 2.624 2.801 4.192.984 3.248.984 4.945z" fill="#263238" stroke="#263238"/><path d="m253.277 350.141c0 2.556.758 5.054 2.178 7.179 1.419 2.125 3.437 3.781 5.799 4.759 2.361.978 4.959 1.234 7.465.735 2.507-.498 4.809-1.729 6.616-3.536 1.808-1.807 3.038-4.11 3.537-6.616.498-2.507.242-5.105-.736-7.466s-2.634-4.379-4.759-5.799-4.623-2.178-7.179-2.178c-3.427 0-6.713 1.362-9.136 3.785-2.424 2.423-3.785 5.71-3.785 9.137z" fill="#263238" stroke="#263238"/><path d="m248.295 270.23.643 7.613 7.296.634.317-7.296s-5.991-3.811-8.256-.951z" fill="#fff" stroke="#263238"/><path d="m243.101 278.496c1.47-1.467 3.435-2.333 5.51-2.429 3.792-.355 9.533-.144 11.578 1.258 1.359 1.009 2.507 2.274 3.379 3.725l-23.126-.394z" fill="#fff" stroke="#263238"/><path d="m276.567 285.715c-2.468-2.803-5.184-4.877-8.093-5.126-8.861-.778-18.384-2.16-27.351-.163-3.667.806-7.68 1.92-10.56 4.387s-3.84 6.201-5.865 9.369l-6.528 10.407c-2.727 4.301-5.447 8.633-8.16 12.998 0 0-1.172 3.514 3.216 5.271 4.387 1.756 7.027-.884 7.027-.884l10.368-15.734 3.341 30.192h36.297l3.84-33.206c1.239 2.227 11.232 19.939 14.813 20.256 3.84.355 5.904-.692 7.287-4.512 1.536-4.234-7.258-14.448-9.37-17.588-2.458-3.724-5.99-10.8-10.262-15.667z" fill="#fff" stroke="#263238"/><path d="m277.229 283.411 11.875 17.674-16.099 7.92-38.266.528-15.043-12.663 10.032-14.255s8.976-4.484 24-4.753c15.024-.268 23.501 5.549 23.501 5.549z" fill="#fff" stroke="#263238"/><path d="m233.962 336.394-2.746 11.001c-.479 1.923-.24 3.954.672 5.712l5.165 9.955h31.478l4.983-9.302c.646-1.208 1.022-2.542 1.102-3.909.079-1.368-.139-2.736-.641-4.011l-3.716-9.446z" fill="#263238" stroke="#263238"/><path d="m256.906 356.093h-6.586v25.123h6.586z" fill="#263238" stroke="#263238"/><path d="m258.567 377.261h-9.927v34.08h9.927z" fill="#263238" stroke="#263238"/><path d="m258.365 410.506-4.599-1.239v-.221l-.422.106-.413-.106v.221l-4.598 1.239-31.354 5.856v2.294h35.952.835 35.952v-2.294z" fill="#263238" stroke="#263238"/><path d="m219.696 422.323c1.214 0 2.198-.984 2.198-2.198s-.984-2.199-2.198-2.199-2.198.985-2.198 2.199.984 2.198 2.198 2.198z" fill="#263238" stroke="#263238"/><path d="m255.543 420.125c0 .435-.129.86-.371 1.221-.241.362-.585.644-.987.81-.401.166-.843.21-1.27.125-.426-.085-.818-.294-1.125-.602-.308-.307-.517-.699-.602-1.125-.085-.427-.041-.869.125-1.27.166-.402.448-.745.81-.987.361-.242.786-.371 1.221-.371.289-.001.576.055.843.165s.51.272.714.477c.205.204.367.447.477.714s.166.554.165.843z" fill="#263238" stroke="#263238"/><path d="m289.402 420.125c0 .435-.129.86-.371 1.222s-.586.644-.989.81c-.402.166-.844.209-1.271.123-.427-.085-.819-.296-1.126-.604s-.515-.701-.599-1.128-.039-.87.129-1.271c.168-.402.451-.744.814-.985.363-.24.789-.367 1.224-.366.288 0 .574.057.84.168s.508.273.711.477.364.447.474.713c.109.267.165.553.164.841z" fill="#263238" stroke="#263238"/><path d="m273.782 364.032h-40.32c-1.122.001-2.233-.219-3.271-.648-1.037-.429-1.979-1.058-2.773-1.852-.794-.793-1.423-1.736-1.852-2.773s-.649-2.149-.648-3.271l4.8-60.326c0-1.888.75-3.698 2.083-5.034 1.334-1.335 3.144-2.087 5.031-2.09h33.6c.935 0 1.861.185 2.725.543.863.358 1.648.883 2.309 1.544.66.662 1.184 1.447 1.541 2.311.357.865.54 1.791.539 2.726l4.8 60.326c.001 1.124-.22 2.237-.65 3.276-.43 1.038-1.061 1.981-1.857 2.775-.795.794-1.74 1.423-2.78 1.851-1.039.428-2.153.646-3.277.642z" fill="#27bfab" stroke="#263238"/><path d="m273.782 367.21h-40.32c-1.122.001-2.233-.219-3.271-.648-1.037-.429-1.979-1.058-2.773-1.852s-1.423-1.736-1.852-2.773-.649-2.149-.648-3.271l4.8-60.327c0-1.887.75-3.698 2.083-5.033 1.334-1.336 3.144-2.087 5.031-2.09h33.6c.935 0 1.861.184 2.725.542.863.359 1.648.883 2.309 1.545.66.662 1.184 1.447 1.541 2.311s.54 1.79.539 2.725l4.8 60.327c.001 1.124-.22 2.237-.65 3.275-.43 1.039-1.061 1.982-1.857 2.776-.795.794-1.74 1.423-2.78 1.85-1.039.428-2.153.646-3.277.643z" fill="#27bfab" stroke="#263238"/><path d="m252.269 274.416c-1.756 0-3.456-.616-4.805-1.741-1.349-1.124-2.261-2.685-2.578-4.413-.22-1.228-.403-2.457-.72-3.667l-1.641-8.765c0-2.585 1.026-5.064 2.853-6.893s4.306-2.858 6.891-2.86c2.587 0 5.068 1.027 6.897 2.857 1.829 1.829 2.857 4.31 2.857 6.896l-1.642 8.765c-.317 1.21-.499 2.439-.72 3.667-.317 1.729-1.23 3.292-2.581 4.416-1.351 1.125-3.054 1.74-4.811 1.738z" fill="#263238" stroke="#263238"/><path d="m246.192 248.064c-1.363.569-2.545 1.501-3.416 2.694-.872 1.193-1.4 2.602-1.528 4.074-.393 5.069 1.171 10.666 1.43 14.314.26 3.648-.912 6.508-4.032 11.452s-1.171 12.231 6.375 16.263c7.545 4.032 17.635 1.584 20.957-2.602 6.268-7.91-1.824-18.605-2.88-24.201-1.056-5.597 1.43-12.884-1.556-18.48-2.985-5.597-7.027-7.421-10.416-7.421-3.388 0-4.934 3.907-4.934 3.907z" fill="#fff" stroke="#263238"/><path d="m261.926 264.144s-1.584 10.291.788 18.24c2.371 7.949-1.316 15.302-10.032 15.562-8.717.259-10.82-11.079-6.068-11.348 4.752-.268 4.752 4.752 3.696 5.021" stroke="#263238"/><path d="m246.192 248.064s4.119 2.88 4.387 7.104" stroke="#263238"/><path d="m190.435 304.886h-11.51v13.364h11.51z" fill="#fff" stroke="#263238"/><path d="m210.691 266.218h-53.481v40.108h53.481z" fill="#263238" stroke="#263238"/><path d="m207.888 268.32h-47.885v35.914h47.885z" fill="#fff" stroke="#263238"/><path d="m198.605 315.658h-50.122v2.227h50.122z" fill="#fff" stroke="#263238"/><path d="m84.96 422.938h-2.64l-1.9104-102.682h6.4512z" fill="#fff" stroke="#263238"/><path d="m107.242 422.938h-2.64l-1.911-102.682h6.461z" fill="#263238" stroke="#263238"/><path d="m269.453 422.938h-2.64l-1.911-102.682h6.461z" fill="#263238" stroke="#263238"/><path d="m298.08 422.938h-2.65l-1.9-102.682h6.451z" fill="#263238" stroke="#263238"/><path d="m289.93 422.938h-2.64l-1.911-102.682h6.461z" fill="#263238" stroke="#263238"/><path d="m392.323 422.938h-2.64l-1.91-102.682h6.451z" fill="#263238" stroke="#263238"/><path d="m134.957 422.938h-2.65l-1.901-102.682h6.452z" fill="#263238" stroke="#263238"/><path d="m154.963 422.938h-2.64l-1.91-102.682h6.461z" fill="#263238" stroke="#263238"/><path d="m398.842 422.938h-2.65l-1.901-102.682h6.451z" fill="#263238" stroke="#263238"/><path d="m408.346 422.938h-2.64l-1.911-102.682h6.461z" fill="#263238" stroke="#263238"/><path d="m258.979 422.938h-2.64l-1.901-102.682h6.452z" fill="#fff" stroke="#263238"/><path d="m418.301 422.938h-2.64l-1.911-102.682h6.452z" fill="#fff" stroke="#263238"/><path d="m425.779 317.222h-347.7022v26.554h347.7022z" fill="#fff" stroke="#263238"/><path d="m425.779 317.222h-347.7022v6.749h347.7022z" fill="#263238" stroke="#263238"/><path d="m428.208 317.222h-352.5696v3.687h352.5696z" fill="#fff" stroke="#263238"/><path d="m114.797 410.362-8.16 10.329s-1.354 1.632 1.085 1.92c2.438.288 14.688 0 14.688 0l-.394-10.205z" fill="#fff" stroke="#263238"/><path d="m114.077 348.403-.48 63.485c-.003.4.074.797.225 1.167s.374.707.656.991c.282.283.618.508.987.662s.765.233 1.165.233h2.41c.721-.002 1.417-.26 1.966-.728.548-.467.913-1.114 1.029-1.826l9.13-57.705z" fill="#263238" stroke="#263238"/><path d="m141.328 351.628c1.765-7.423-2.822-14.87-10.245-16.635-7.423-1.764-14.87 2.823-16.635 10.246-1.764 7.423 2.823 14.87 10.246 16.634 7.423 1.765 14.87-2.822 16.634-10.245z" fill="#263238" stroke="#263238"/><path d="m169.92 410.362 8.15 10.329s1.364 1.632-1.084 1.92-14.679 0-14.679 0l.375-11.088z" fill="#fff" stroke="#263238"/><path d="m170.63 348.403.48 63.485c.003.4-.074.797-.225 1.167s-.374.707-.656.991c-.282.283-.618.508-.987.662s-.765.233-1.165.233h-2.391c-.721.002-1.42-.255-1.97-.723-.549-.468-.913-1.118-1.025-1.831l-9.091-57.705z" fill="#263238" stroke="#263238"/><path d="m166.583 358.169c5.395-5.395 5.395-14.142 0-19.537-5.395-5.394-14.141-5.394-19.536 0-5.395 5.395-5.395 14.142 0 19.537s14.141 5.395 19.536 0z" fill="#263238" stroke="#263238"/><path d="m137.683 262.982.672 8.141 7.805.672.336-7.795s-6.442-4.07-8.813-1.018z" fill="#fff" stroke="#263238"/><path d="m133.766 260.851c-.423.049-.849-.072-1.184-.337-.334-.264-.551-.65-.601-1.074l-.509-4.301c-.024-.21-.006-.424.052-.627.058-.204.156-.394.288-.56s.296-.304.481-.407c.185-.102.389-.168.6-.191.424-.049.849.072 1.184.337.335.264.551.65.601 1.074l.509 4.291c.026.211.009.426-.049.63-.058.205-.155.397-.287.563-.133.167-.296.306-.482.41-.186.103-.391.168-.603.192z" fill="#fff" stroke="#263238"/><path d="m150.25 260.304c-.425-.037-.818-.24-1.093-.566-.276-.325-.411-.747-.376-1.172l.355-4.31c.017-.212.076-.419.173-.608s.231-.357.393-.495c.162-.137.35-.241.553-.306.203-.064.416-.088.628-.069.211.018.417.077.605.175s.355.231.492.394c.136.162.239.35.303.552s.087.415.069.626l-.355 4.31c-.018.211-.078.417-.176.605-.097.188-.231.355-.393.492-.163.136-.35.239-.552.303s-.415.087-.626.069z" fill="#fff" stroke="#263238"/><path d="m141.926 267.456c-1.876-.001-3.693-.659-5.135-1.86-1.442-1.202-2.417-2.87-2.756-4.716-.24-1.315-.432-2.63-.768-3.917l-1.747-9.379c0-2.762 1.097-5.412 3.051-7.365 1.953-1.954 4.603-3.051 7.365-3.051 2.762.003 5.41 1.101 7.362 3.054 1.953 1.952 3.051 4.6 3.054 7.362l-1.757 9.379c-.336 1.287-.537 2.602-.768 3.917-.339 1.847-1.316 3.517-2.759 4.719-1.444 1.202-3.263 1.859-5.142 1.857z" fill="#263238" stroke="#263238"/><path d="m130.32 272.083c1.569-1.57 3.668-2.498 5.885-2.601 4.051-.375 10.79-1.335 12.969.163 2.347 1.816 4.59 3.761 6.72 5.827l-28.377-1.075z" fill="#fff" stroke="#263238"/><path d="m116.938 275.846-20.1604 37.757s-1.248 3.754 3.4464 5.626c4.694 1.872 7.507-.96 7.507-.96l11.837-18.01z" fill="#263238" stroke="#263238"/><path d="m164.342 274.627s26.045 36.327 24.567 40.416c-1.479 4.09-3.715 5.194-7.795 4.8-4.08-.393-15.994-21.878-15.994-21.878z" fill="#263238" stroke="#263238"/><path d="m162.096 274.31s-16.272-1.564-25.344-1.564-19.814 3.1-19.814 3.1l5.414 57.86h38.803l3.187-59.079z" fill="#263238" stroke="#263238"/><path d="m122.352 333.706-2.88 11.76c-.512 2.055-.256 4.226.72 6.105l5.51 10.647h33.648l5.28-9.898c.693-1.291 1.096-2.717 1.182-4.179s-.147-2.925-.682-4.288l-3.975-10.099z" fill="#263238" stroke="#263238"/><path d="m146.87 354.758h-7.036v26.852h7.036z" fill="#263238" stroke="#263238"/><path d="m148.666 377.395h-10.618v33.965h10.618z" fill="#263238" stroke="#263238"/><path d="m148.445 410.458-4.925-1.316v-.24l-.442.116-.451-.116v.24l-4.915 1.316-33.514 6.259v2.457h38.429.893 38.438v-2.457z" fill="#263238" stroke="#263238"/><path d="m107.107 423.082c1.294 0 2.343-1.049 2.343-2.343 0-1.293-1.049-2.342-2.343-2.342s-2.342 1.049-2.342 2.342c0 1.294 1.048 2.343 2.342 2.343z" fill="#263238" stroke="#263238"/><path d="m145.421 420.739c0 .463-.138.916-.395 1.302-.257.385-.623.685-1.051.862-.428.178-.899.224-1.354.134-.454-.091-.871-.314-1.199-.641-.328-.328-.551-.745-.641-1.2-.09-.454-.044-.925.133-1.353.178-.428.478-.794.863-1.051.385-.258.838-.395 1.301-.395.622 0 1.217.247 1.657.686.439.439.686 1.035.686 1.656z" fill="#263238" stroke="#263238"/><path d="m181.622 420.739c.002.466-.134.921-.391 1.31-.258.388-.624.691-1.054.87-.429.18-.903.227-1.359.138-.457-.09-.877-.313-1.207-.642-.33-.328-.555-.747-.647-1.204-.091-.456-.045-.93.133-1.36.177-.43.479-.798.866-1.057s.842-.397 1.307-.397c.623 0 1.219.246 1.66.685s.69 1.035.692 1.657z" fill="#263238" stroke="#263238"/><path d="m109.44 329.011h6.96v30.173h-.25c-1.782 0-3.491-.708-4.751-1.968-1.261-1.26-1.969-2.97-1.969-4.752v-23.453z" fill="#27bfab" stroke="#263238"/><path d="m116.371 322.714h-10.944v5.635h10.944z" fill="#27bfab" stroke="#263238"/><path d="m170.592 359.184c.918.008 1.829-.167 2.68-.513.85-.347 1.624-.858 2.275-1.506.652-.647 1.169-1.417 1.521-2.265s.533-1.758.532-2.676v-23.213h-7.008z" fill="#27bfab" stroke="#263238"/><path d="m170.592 328.358h10.944v-5.635h-10.944z" fill="#27bfab" stroke="#263238"/><path d="m164.928 363.254h-43.133c-1.2.002-2.388-.234-3.496-.692-1.109-.458-2.117-1.13-2.966-1.978-.848-.848-1.522-1.855-1.981-2.963-.46-1.108-.696-2.296-.696-3.496l5.117-64.493c0-2.019.802-3.955 2.23-5.383 1.427-1.428 3.364-2.23 5.383-2.23h35.942c1.001-.002 1.993.193 2.919.574.926.382 1.768.942 2.476 1.649.709.707 1.272 1.547 1.656 2.472.383.925.581 1.917.581 2.918l5.117 64.493c0 1.2-.237 2.389-.697 3.498s-1.134 2.116-1.984 2.964-1.858 1.52-2.968 1.978-2.299.692-3.5.689z" fill="#27bfab" stroke="#263238"/><path d="m164.928 366.643h-43.133c-1.2.001-2.388-.234-3.496-.692-1.109-.458-2.117-1.131-2.966-1.978-.848-.848-1.522-1.855-1.981-2.963-.46-1.109-.696-2.297-.696-3.496l5.117-64.493c.002-2.018.806-3.951 2.233-5.377s3.362-2.226 5.38-2.226h35.942c2.017 0 3.952.8 5.38 2.226 1.427 1.426 2.23 3.359 2.233 5.377l5.117 64.493c0 2.421-.962 4.743-2.674 6.455-1.713 1.712-4.035 2.674-6.456 2.674z" fill="#27bfab" stroke="#263238"/><path d="m43.0943 423.034h391.4397" stroke="#263238"/></g></svg>