<svg fill="none" height="44" viewBox="0 0 154 44" width="154" xmlns="http://www.w3.org/2000/svg" xmlns:xlink="http://www.w3.org/1999/xlink"><linearGradient id="a" gradientUnits="userSpaceOnUse" x1="93.5" x2="154" y1="2.75" y2="44"><stop offset="0" stop-color="#25d366"/><stop offset=".504" stop-color="#27beaa"/><stop offset="1" stop-color="#29aaec"/></linearGradient><path d="m125.27 40.2757c16.685-1.5675 29.53-11.1901 28.691-21.4925-.839-10.30243-15.046-17.38345-31.731-15.81589s-29.5305 11.19009-28.6911 21.49249c.3546 4.3523 3.0948 8.1297 7.4001 10.923-.855 1.7143-2.0086 3.6304-3.3758 5.3788-.8997 1.1505.0564 3.5185 1.4259 3.2111 3.3439-.7504 7.2139-2.1245 10.6209-4.865 4.655 1.2389 10.016 1.6983 15.66 1.168z" fill="url(#a)"/><path clip-rule="evenodd" d="m108.213 28.9025c.733-.0733 1.1-.5592 1.1-1.4575v-3.795h1.952c1.1 0 2.081-.1375 2.943-.4125.861-.2933 1.576-.7058 2.145-1.2375 1.118-1.0633 1.677-2.4933 1.677-4.29 0-1.8883-.687-3.3642-2.062-4.4275-1.357-1.0633-3.273-1.595-5.748-1.595-1.797 0-3.309.2108-4.537.6325-.404.1283-.706.3025-.908.5225-.183.22-.275.5133-.275.88v12.9525c0 .8617.192 1.4575.578 1.7875.385.33 1.054.495 2.007.495zm4.29-9.57c-.404.3667-.99.55-1.76.55h-1.458v-4.2625c.275-.055.715-.0825 1.32-.0825.825 0 1.448.1925 1.87.5775.44.3667.66.8983.66 1.595 0 .715-.211 1.2558-.632 1.6225z" fill="#fff" fill-rule="evenodd"/><path clip-rule="evenodd" d="m142.033 22.1375c0 2.2367-.651 3.9875-1.953 5.2525-1.283 1.2467-3.034 1.87-5.252 1.87-2.182 0-3.915-.6417-5.198-1.925-1.338-1.2467-2.007-2.9792-2.007-5.1975 0-1.0633.174-2.035.522-2.915.348-.8983.843-1.6592 1.485-2.2825 1.32-1.265 3.053-1.8975 5.198-1.8975 1.045 0 2.016.165 2.915.495.898.33 1.668.8067 2.31 1.43.641.6233 1.127 1.3842 1.457 2.2825.348.88.523 1.8425.523 2.8875zm-9.625 0c0 1.1.21 1.9525.632 2.5575.44.605 1.045.9075 1.815.9075s1.357-.3025 1.76-.9075c.422-.605.633-1.4575.633-2.5575s-.211-1.9433-.633-2.53c-.422-.605-1.017-.9075-1.787-.9075s-1.366.3025-1.788.9075c-.422.5867-.632 1.43-.632 2.53z" fill="#fff" fill-rule="evenodd"/><path d="m123.006 27.5275c0 .6233-.156 1.045-.468 1.265-.312.2017-.669.2933-1.072.275l-.55-.0275c-.935 0-1.605-.165-2.008-.495-.385-.33-.577-.8983-.577-1.705v-8.25c0-.7333.265-1.3292.797-1.7875s1.393-.88 2.585-1.265c1.082-.3117 2.127-.4675 3.135-.4675 1.907 0 2.86.7242 2.86 2.1725 0 .22-.009.3483-.027.385-.074.6417-.569 1.0083-1.485 1.1-.587.055-1.183.1467-1.788.275-.587.1283-1.054.2658-1.402.4125z" fill="#fff"/><g fill="#27262c"><path d="m9.295 16.1975c-.385.2017-.65083.6142-.7975 1.2375l-.77 3.4375-.6875 2.86-.2475 1.0725h-.1375l-.165-1.045-.2475-1.87-1.21-8.91c-.18333-1.32-1.03583-1.98-2.5575-1.98-.715 0-1.31083.1467-1.7875.44-.458333.275-.6875.7058-.6875 1.2925 0 .1467.00916668.2475.0275.3025l.11 1.0175c.146667 1.4667.348333 2.9608.605 4.4825.31167 1.815.70583 3.685 1.1825 5.61.47667 1.9067.8525 3.1442 1.1275 3.7125.20167.4217.61417.7517 1.2375.99.64167.22 1.41167.33 2.31.33.825 0 1.57667-.1283 2.255-.385.275-.1283.495-.2933.66-.495.165-.22.29333-.5225.385-.9075.33-1.3017.7608-3.1258 1.2925-5.4725.7517 2.86 1.3017 4.84 1.65 5.94.1283.4217.4767.7517 1.045.99.5867.22 1.3292.33 2.2275.33.9717 0 1.8058-.1467 2.5025-.44.5133-.2017.88-.6233 1.1-1.265.2017-.6783.495-1.8058.88-3.3825.385-1.6867.7333-3.7217 1.045-6.105s.4675-4.07.4675-5.06c0-.6417-.22-1.1183-.66-1.43-.44-.33-1.0542-.495-1.8425-.495-.715 0-1.265.11-1.65.33-.3667.22-.5775.66-.6325 1.32l-.22 3.025-.33 2.915c-.3483 2.9883-.6142 5.06-.7975 6.215h-.1375c-.1833-.8067-.495-2.0167-.935-3.63l-.495-1.87c-.1467-.4767-.3392-1.1733-.5775-2.09-.11-.44-.4217-.77-.935-.99-.495-.2383-1.1367-.3575-1.925-.3575-.715 0-1.27417.11-1.6775.33z"/><path clip-rule="evenodd" d="m29.0926 15.18c2.1267 0 3.7584.4308 4.895 1.2925 1.1367.8433 1.705 2.09 1.705 3.74v6.16c0 .4217-.11.7883-.33 1.1-.2016.2933-.5408.5775-1.0175.8525-1.1733.715-2.8508 1.0725-5.0325 1.0725-2.035 0-3.6116-.3758-4.73-1.1275-1.1-.77-1.65-1.8883-1.65-3.355 0-1.265.3759-2.2367 1.1275-2.915.7517-.6783 1.9159-1.1 3.4925-1.265l3.6025-.385v-.1925c0-.99-.9075-1.485-2.7225-1.485-.7883 0-1.6958.1283-2.7225.385-.3666.0917-.6325.1375-.7975.1375-.3666 0-.6508-.1467-.8525-.44-.2016-.3117-.3025-.6875-.3025-1.1275 0-.4767.1009-.8525.3025-1.1275.22-.275.5867-.5225 1.1-.7425.9534-.385 2.2642-.5775 3.9325-.5775zm.22 10.8075c.3667 0 .7242-.0275 1.0725-.0825.3667-.0733.6325-.165.7975-.275v-2.2l-1.98.165c-1.1733.0733-1.76.4583-1.76 1.155 0 .825.6234 1.2375 1.87 1.2375z" fill-rule="evenodd"/><path clip-rule="evenodd" d="m55.1424 15.18c2.1267 0 3.7584.4308 4.895 1.2925 1.1367.8433 1.705 2.09 1.705 3.74v6.16c0 .4217-.11.7883-.33 1.1-.2016.2933-.5408.5775-1.0175.8525-1.1733.715-2.8508 1.0725-5.0325 1.0725-2.035 0-3.6116-.3758-4.73-1.1275-1.1-.77-1.65-1.8883-1.65-3.355 0-1.265.3759-2.2367 1.1275-2.915.7517-.6783 1.9159-1.1 3.4925-1.265l3.6025-.385v-.1925c0-.99-.9075-1.485-2.7225-1.485-.7883 0-1.6958.1283-2.7225.385-.3666.0917-.6325.1375-.7975.1375-.3666 0-.6508-.1467-.8525-.44-.2016-.3117-.3025-.6875-.3025-1.1275 0-.4767.1009-.8525.3025-1.1275.22-.275.5867-.5225 1.1-.7425.9534-.385 2.2642-.5775 3.9325-.5775zm.22 10.8075c.3667 0 .7242-.0275 1.0725-.0825.3667-.0733.6325-.165.7975-.275v-2.2l-1.98.165c-1.1733.0733-1.76.4583-1.76 1.155 0 .825.6234 1.2375 1.87 1.2375z" fill-rule="evenodd"/><path clip-rule="evenodd" d="m74.2038 16.9125c-1.265-1.155-3.0983-1.7325-5.5-1.7325-1.0267 0-1.9708.11-2.8325.33-.8433.2017-1.5492.495-2.1175.88-.4217.2933-.7242.5958-.9075.9075s-.275.6967-.275 1.155v13.2c0 .825.1925 1.3933.5775 1.705.385.33 1.045.495 1.98.495h.605c1.0083.0367 1.5125-.4767 1.5125-1.54v-3.3c.605.2383 1.3383.3575 2.2.3575 2.2 0 3.905-.6142 5.115-1.8425s1.815-2.97 1.815-5.225c0-2.3283-.7242-4.125-2.1725-5.39zm-2.6125 5.39c0 2.255-.9442 3.3825-2.8325 3.3825-.4583 0-.9717-.1283-1.54-.385v-6.05c.5317-.275 1.0817-.4125 1.65-.4125 1.815 0 2.7225 1.155 2.7225 3.465z" fill-rule="evenodd"/><path clip-rule="evenodd" d="m88.3163 16.4725c-1.1367-.8617-2.7684-1.2925-4.8951-1.2925-1.6683 0-2.9791.1925-3.9325.5775-.5133.22-.88.4675-1.1.7425-.2016.275-.3024.6508-.3024 1.1275 0 .44.1008.8158.3024 1.1275.2017.2933.4859.44.8525.44.165 0 .4309-.0458.7975-.1375 1.0267-.2567 1.9342-.385 2.7225-.385 1.815 0 2.7225.495 2.7225 1.485v.1925l-3.6025.385c-1.5766.165-2.7408.5867-3.4925 1.265-.7516.6783-1.1275 1.65-1.1275 2.915 0 1.4667.55 2.585 1.65 3.355 1.1184.7517 2.695 1.1275 4.7301 1.1275 2.1816 0 3.8591-.3575 5.0324-1.0725.4767-.275.8159-.5592 1.0175-.8525.22-.3117.3301-.6783.3301-1.1v-6.16c0-1.65-.5684-2.8967-1.705-3.74zm-3.6025 9.4325c-.3484.055-.7059.0825-1.0725.0825-1.2467 0-1.87-.4125-1.87-1.2375 0-.6967.5866-1.0817 1.7599-1.155l1.98-.165v2.2c-.1649.11-.4308.2017-.7974.275z" fill-rule="evenodd"/><path d="m36.989 28.4075c.33.3667.825.55 1.485.55h8.1125c1.045 0 1.5675-.605 1.5675-1.815 0-.22-.0458-.5317-.1375-.935-.1283-.5683-.6233-.8525-1.485-.8525h-4.235l4.62-5.555c.605-.7517.9075-1.4483.9075-2.09s-.165-1.1458-.495-1.5125c-.3117-.385-.7975-.5775-1.4575-.5775h-7.6725c-1.045 0-1.5675.605-1.5675 1.815 0 .22.0458.5317.1375.935.1283.5683.6233.8525 1.485.8525h3.905l-4.73 5.555c-.605.7333-.9075 1.43-.9075 2.09 0 .6417.1558 1.155.4675 1.54z"/></g></svg>